<?xml version="1.0" standalone="no"?>
<!DOCTYPE svg PUBLIC "-//W3C//DTD SVG 20010904//EN"
 "http://www.w3.org/TR/2001/REC-SVG-20010904/DTD/svg10.dtd">
<svg version="1.0" xmlns="http://www.w3.org/2000/svg"
 width="1056.000000pt" height="1056.000000pt" viewBox="0 0 1056.000000 1056.000000"
 preserveAspectRatio="xMidYMid meet">
<metadata>
Created by potrace 1.14, written by Peter Selinger 2001-2017
</metadata>
<g transform="translate(0.000000,1056.000000) scale(0.100000,-0.100000)"
fill="#000000" stroke="none">
<path d="M1105 9449 c-44 -9 -81 -18 -82 -19 -2 -1 -6 -3 -10 -4 -5 -1 -23 -6
-40 -10 -18 -4 -33 -11 -33 -15 0 -4 -6 -8 -12 -8 -7 0 -34 -10 -60 -21 -26
-12 -52 -22 -57 -22 -6 0 -11 -4 -11 -10 0 -5 -6 -10 -13 -10 -8 0 -22 -9 -32
-20 -10 -11 -21 -17 -25 -15 -5 3 -10 2 -12 -2 -1 -5 -25 -26 -53 -48 -80 -64
-205 -200 -205 -224 0 -6 -4 -11 -10 -11 -5 0 -12 -11 -16 -25 -3 -14 -10 -25
-14 -25 -4 0 -11 -11 -14 -24 -3 -14 -12 -31 -20 -39 -13 -12 -88 -228 -85
-244 1 -5 0 -10 -1 -13 -7 -20 -11 -60 -15 -157 -2 -62 -6 -117 -9 -122 -4 -5
-3 -12 1 -14 8 -5 8 -65 0 -102 -2 -11 -2 -24 1 -29 9 -16 9 -59 1 -82 -4 -12
-5 -24 -2 -28 9 -9 11 -76 2 -82 -5 -2 -6 -11 -3 -18 8 -21 10 -356 2 -356 -4
0 -3 -13 2 -29 4 -16 7 -31 5 -33 -4 -4 -5 -33 -5 -138 0 -30 0 -59 -1 -65 -1
-14 0 -115 2 -145 0 -14 0 -38 0 -55 -1 -16 -1 -39 0 -50 0 -11 0 -27 0 -35 0
-8 0 -40 0 -70 0 -30 0 -61 0 -67 -1 -7 -1 -21 -1 -30 0 -10 -1 -43 -1 -73 -1
-30 0 -66 1 -80 2 -25 2 -38 0 -133 -1 -26 1 -51 5 -56 3 -5 1 -13 -5 -16 -6
-4 -8 -16 -4 -28 4 -12 6 -44 5 -72 -2 -27 -2 -57 -2 -65 1 -8 1 -26 0 -40 0
-14 0 -41 0 -60 0 -19 1 -55 0 -80 0 -25 0 -931 -1 -2015 -1 -1755 1 -2047 17
-2105 2 -8 6 -26 9 -40 10 -52 15 -67 30 -103 8 -21 15 -40 15 -43 -1 -12 85
-175 103 -193 10 -11 18 -25 18 -31 0 -5 5 -10 10 -10 6 0 10 -5 10 -11 0 -15
175 -189 189 -189 6 0 11 -4 11 -8 0 -9 113 -78 173 -106 49 -22 197 -76 197
-71 0 2 14 0 32 -5 69 -20 324 -32 346 -17 6 5 12 6 12 1 0 -11 230 -11 248 0
6 4 12 4 12 -1 0 -12 354 -10 362 2 5 7 8 7 8 0 0 -6 32 -10 75 -10 41 0 75 4
75 8 0 5 5 5 11 1 16 -10 159 -11 159 -1 0 4 5 5 12 1 17 -11 168 -11 168 0 0
5 6 4 13 -1 6 -5 44 -7 82 -6 83 3 60 3 223 0 83 -1 132 2 132 8 0 7 3 7 8 0
8 -11 152 -14 152 -3 0 4 10 4 23 0 28 -10 128 -9 145 2 6 4 12 4 12 -1 0 -10
231 -10 248 1 6 4 12 4 12 -1 0 -10 192 -9 208 1 7 4 12 4 12 -1 0 -10 291
-10 308 1 7 4 12 4 12 -1 0 -10 181 -10 198 1 7 4 12 3 12 -1 0 -12 94 -10
102 2 5 7 8 7 8 0 0 -12 289 -13 308 -1 7 4 12 4 12 -1 0 -10 181 -10 198 1 7
4 12 4 12 -1 0 -10 241 -10 258 1 6 4 12 4 12 -1 0 -10 231 -10 248 1 6 4 12
4 12 -1 0 -12 354 -10 362 2 5 7 8 7 8 0 0 -6 32 -10 75 -10 41 0 75 4 75 8 0
5 5 5 11 1 16 -10 159 -11 159 -1 0 4 5 5 12 1 17 -11 168 -11 168 0 0 5 6 4
13 -1 6 -5 44 -7 82 -6 83 3 60 3 223 0 83 -1 132 2 132 8 0 7 3 7 8 0 8 -11
152 -14 152 -3 0 4 10 4 23 0 28 -10 128 -9 145 2 6 4 12 4 12 -1 0 -10 231
-10 248 1 6 4 12 4 12 -1 0 -10 192 -9 208 1 7 4 12 4 12 -1 0 -10 291 -10
308 1 7 4 12 4 12 -1 0 -10 181 -10 198 1 7 4 12 3 12 -1 0 -12 94 -10 102 2
5 7 8 7 8 0 0 -12 289 -13 308 -1 7 4 12 4 12 -1 0 -10 181 -10 198 1 7 4 12
4 12 -1 0 -10 241 -10 258 1 6 4 12 4 12 -1 0 -4 68 -8 150 -8 83 0 150 4 150
9 0 5 6 4 13 -1 35 -26 375 28 422 67 8 7 15 10 15 6 0 -11 100 43 185 99 132
87 265 237 335 374 37 71 78 179 85 223 4 18 11 53 17 78 8 33 12 1043 13
3693 l1 3647 -1023 0 -1022 0 14 -33 c21 -48 73 -147 86 -163 6 -8 9 -14 7
-14 -6 0 217 -447 231 -464 5 -6 9 -15 9 -19 1 -4 151 -307 334 -674 183 -366
334 -670 336 -674 2 -4 -343 -6 -765 -5 l-768 1 -35 70 c-19 39 -39 73 -45 77
-5 4 -6 8 -2 8 9 0 -22 61 -36 71 -5 3 -8 9 -7 13 2 9 -543 1100 -553 1107 -5
3 -8 9 -7 13 3 12 -334 678 -344 682 -6 2 -237 3 -513 2 l-503 -3 124 -247
c67 -136 129 -255 137 -264 8 -9 12 -19 11 -21 -5 -5 470 -956 481 -964 5 -3
8 -9 7 -13 0 -4 56 -122 126 -264 70 -141 129 -260 131 -263 2 -4 -342 -7
-765 -7 l-767 0 -95 192 c-52 105 -98 193 -102 194 -4 2 -8 10 -8 18 0 16 -20
56 -33 65 -5 3 -8 9 -7 13 3 9 -142 299 -153 307 -5 3 -8 10 -8 15 0 13 -422
858 -431 862 -5 2 -8 10 -8 18 0 17 -21 56 -35 66 -5 4 -7 8 -3 8 3 0 -26 64
-66 143 l-73 142 -499 3 c-274 1 -504 0 -510 -2 -11 -4 376 -795 406 -831 7
-8 10 -15 7 -15 -5 0 127 -266 148 -300 5 -8 10 -17 10 -20 0 -12 310 -625
317 -628 4 -2 8 -9 8 -16 0 -7 22 -55 49 -108 26 -53 51 -103 54 -111 5 -13
-84 -15 -761 -15 l-767 0 -95 192 c-52 105 -98 194 -103 197 -5 3 -8 9 -7 13
2 9 -302 620 -313 627 -5 3 -9 10 -8 15 0 14 -182 378 -194 386 -5 4 -6 8 -2
8 9 0 -22 61 -36 71 -5 3 -8 8 -6 10 4 6 -224 463 -236 471 -5 4 -7 8 -2 8 4
0 0 12 -9 26 l-17 25 -311 -2 c-244 -3 -328 -7 -391 -20z"/>
</g>
</svg>
